<svg width="454" height="320" viewBox="0 0 454 320" fill="none" xmlns="http://www.w3.org/2000/svg">
    <g clip-path="url(#clip0_2362_54354)">
        <path d="M453.62 312.96C453.62 320.983 352.155 319.966 226.994 319.966C101.832 319.966 0.378906 320.983 0.378906 312.96C0.378906 304.937 101.844 298.428 226.994 298.428C352.144 298.428 453.62 304.937 453.62 312.96Z"
              fill="#F5F5F5"/>
        <path d="M289.893 115.341C289.893 151.332 260.716 180.498 224.736 180.498C188.756 180.498 159.567 151.321 159.567 115.341C159.567 79.3608 188.745 50.1836 224.736 50.1836C260.727 50.1836 289.893 79.3608 289.893 115.341Z"
              fill="#27AAE1"/>
        <path d="M268.062 61.7671C268.062 95.8825 240.41 123.534 206.294 123.534C172.179 123.534 144.527 95.8825 144.527 61.7671C144.527 27.6517 172.168 0 206.283 0C240.399 0 268.05 27.6517 268.05 61.7671H268.062Z"
              fill="#5FB3F2"/>
        <path d="M303.159 57.7782C303.159 76.6383 287.87 91.9275 269.01 91.9275C250.15 91.9275 234.86 76.6383 234.86 57.7782C234.86 38.9181 250.15 23.6289 269.01 23.6289C287.87 23.6289 303.159 38.9181 303.159 57.7782Z"
              fill="#5FB3F2"/>
        <path d="M246.354 106.55C246.354 141.366 218.137 169.583 183.321 169.583C148.505 169.583 120.288 141.366 120.288 106.55C120.288 71.7343 148.505 43.5176 183.321 43.5176C218.137 43.5176 246.354 71.7343 246.354 106.55Z"
              fill="#5FB3F2"/>
        <path d="M336.021 111.172C336.021 143.298 309.974 169.345 277.847 169.345C245.721 169.345 219.674 143.298 219.674 111.172C219.674 79.0451 245.721 52.998 277.847 52.998C309.974 52.998 336.021 79.0451 336.021 111.172Z"
              fill="#5FB3F2"/>
        <g opacity="0.2">
            <path d="M257.698 41.505L257.732 41.4824H179.546V163.593L293.294 164.135L278.988 62.919L257.698 41.505Z"
                  fill="black" fill-opacity="0.87"/>
        </g>
        <path d="M253.359 40.0367L253.392 40.0254H175.206V162.124H276.66V63.3378L253.359 40.0367Z" fill="#F1F2F2"/>
        <path d="M258.546 49.4375H181.049V50.7709H258.546V49.4375Z" fill="#E6E7E8"/>
        <path d="M271.112 61.4375H181.049V62.7709H271.112V61.4375Z" fill="#E6E7E8"/>
        <path d="M271.112 73.4512H181.049V74.7846H271.112V73.4512Z" fill="#E6E7E8"/>
        <path d="M271.112 85.4629H181.049V86.7963H271.112V85.4629Z" fill="#E6E7E8"/>
        <path d="M271.112 97.4629H181.049V98.7963H271.112V97.4629Z" fill="#E6E7E8"/>
        <path d="M271.112 109.477H181.049V110.81H271.112V109.477Z" fill="#E6E7E8"/>
        <path d="M271.112 121.488H181.049V122.822H271.112V121.488Z" fill="#E6E7E8"/>
        <path d="M271.112 133.5H181.049V134.833H271.112V133.5Z" fill="#E6E7E8"/>
        <path d="M271.112 145.5H181.049V146.833H271.112V145.5Z" fill="#E6E7E8"/>
        <path d="M271.112 157.514H181.049V158.847H271.112V157.514Z" fill="#E6E7E8"/>
        <path d="M276.671 63.3495H253.358V40.0371L276.671 63.3495Z" fill="white"/>
        <path d="M217.786 83.407C217.786 91.2832 211.401 97.6792 203.513 97.6792C195.626 97.6792 189.241 91.2832 189.241 83.407C189.241 75.5307 195.637 69.1348 203.513 69.1348C211.39 69.1348 217.786 75.5194 217.786 83.407Z"
              fill="white"/>
        <path d="M214.09 83.4071C214.09 89.2493 209.355 93.9841 203.513 93.9841C197.67 93.9841 192.936 89.2493 192.936 83.4071C192.936 77.5649 197.67 72.8301 203.513 72.8301C209.355 72.8301 214.09 77.5649 214.09 83.4071Z"
              fill="#414042"/>
        <path d="M203.92 76.1067C203.92 78.0956 202.305 79.7115 200.316 79.7115C198.327 79.7115 196.711 78.0956 196.711 76.1067C196.711 74.1179 198.327 72.502 200.316 72.502C202.305 72.502 203.92 74.1179 203.92 76.1067Z"
              fill="white"/>
        <path d="M198.485 83.6327C198.485 84.6271 197.683 85.4294 196.688 85.4294C195.694 85.4294 194.892 84.6271 194.892 83.6327C194.892 82.6383 195.694 81.8359 196.688 81.8359C197.683 81.8359 198.485 82.6383 198.485 83.6327Z"
              fill="white"/>
        <path d="M203.388 88.4925C203.388 90.0067 202.168 91.2271 200.654 91.2271C199.139 91.2271 197.919 90.0067 197.919 88.4925C197.919 86.9782 199.139 85.7578 200.654 85.7578C202.168 85.7578 203.388 86.9782 203.388 88.4925Z"
              fill="white"/>
        <path d="M212.644 85.1256C209.48 85.6228 209.084 86.0183 208.598 89.171C208.112 86.007 207.706 85.6115 204.553 85.1256C207.717 84.6397 208.112 84.2328 208.598 81.0801C209.084 84.2441 209.491 84.6397 212.644 85.1256Z"
              fill="white"/>
        <path d="M263.596 83.407C263.596 91.2832 257.2 97.6792 249.324 97.6792C241.448 97.6792 235.052 91.2832 235.052 83.407C235.052 75.5307 241.448 69.1348 249.324 69.1348C257.2 69.1348 263.596 75.5194 263.596 83.407Z"
              fill="white"/>
        <path d="M259.9 83.4071C259.9 89.2493 255.165 93.9841 249.323 93.9841C243.481 93.9841 238.746 89.2493 238.746 83.4071C238.746 77.5649 243.481 72.8301 249.323 72.8301C255.165 72.8301 259.9 77.5649 259.9 83.4071Z"
              fill="#414042"/>
        <path d="M249.731 76.1067C249.731 78.0956 248.115 79.7115 246.126 79.7115C244.137 79.7115 242.521 78.0956 242.521 76.1067C242.521 74.1179 244.137 72.502 246.126 72.502C248.115 72.502 249.731 74.1179 249.731 76.1067Z"
              fill="white"/>
        <path d="M244.296 83.6327C244.296 84.6271 243.493 85.4294 242.499 85.4294C241.504 85.4294 240.702 84.6271 240.702 83.6327C240.702 82.6383 241.504 81.8359 242.499 81.8359C243.493 81.8359 244.296 82.6383 244.296 83.6327Z"
              fill="white"/>
        <path d="M249.199 88.4925C249.199 90.0067 247.967 91.2271 246.464 91.2271C244.961 91.2271 243.729 90.0067 243.729 88.4925C243.729 86.9782 244.95 85.7578 246.464 85.7578C247.978 85.7578 249.199 86.9782 249.199 88.4925Z"
              fill="white"/>
        <path d="M258.454 85.1256C255.29 85.6228 254.895 86.0183 254.409 89.171C253.923 86.007 253.516 85.6115 250.363 85.1256C253.527 84.6397 253.923 84.2328 254.409 81.0801C254.895 84.2441 255.301 84.6397 258.454 85.1256Z"
              fill="white"/>
        <path d="M245.098 124.133C243.923 124.133 242.974 123.184 242.974 122.009C242.974 112.878 235.55 105.454 226.419 105.454C217.288 105.454 209.864 112.878 209.864 122.009C209.864 123.184 208.915 124.133 207.74 124.133C206.564 124.133 205.615 123.184 205.615 122.009C205.615 110.539 214.949 101.205 226.419 101.205C237.889 101.205 247.223 110.539 247.223 122.009C247.223 123.184 246.274 124.133 245.098 124.133Z"
              fill="#414042"/>
        <path d="M345.41 311.977H106.274L106.286 127.682H345.41V311.977Z" fill="#2972DD"/>
        <g opacity="0.1">
            <path d="M130.695 204.795H106.399V218.118H130.695V204.795Z" fill="white"/>
        </g>
        <g opacity="0.1">
            <path d="M130.695 235.826H106.399V249.149H130.695V235.826Z" fill="white"/>
        </g>
        <g opacity="0.1">
            <path d="M130.695 266.867H106.399V280.19H130.695V266.867Z" fill="white"/>
        </g>
        <g opacity="0.1">
            <path d="M345.378 204.795H321.082V218.118H345.378V204.795Z" fill="white"/>
        </g>
        <g opacity="0.1">
            <path d="M345.378 235.826H321.082V249.149H345.378V235.826Z" fill="white"/>
        </g>
        <g opacity="0.1">
            <path d="M345.378 266.867H321.082V280.19H345.378V266.867Z" fill="white"/>
        </g>
        <path d="M391.662 176.985L342.472 130.778L345.41 127.682L394.577 173.877L391.662 176.985Z" fill="#4897E9"/>
        <path d="M60.0327 176.985L109.223 130.778L106.285 127.682L57.1172 173.877L60.0327 176.985Z" fill="#4897E9"/>
        <path d="M361.365 188.963H90.3174L106.285 127.682H345.409L361.365 188.963Z" fill="#4897E9"/>
        <path d="M183.168 258.36H160V247.803L183.168 220H194.255V248.402H200V258.36H194.255V267H183.168V258.36ZM183.168 248.402V233.859L170.923 248.402H183.168Z"
              fill="white"/>
        <path d="M204.001 243.828C204.001 235 205.592 228.821 208.774 225.291C211.956 221.761 216.804 219.997 223.32 220C226.447 220 229.017 220.386 231.028 221.159C232.855 221.816 234.527 222.84 235.943 224.167C237.137 225.305 238.148 226.619 238.941 228.064C239.725 229.572 240.317 231.173 240.7 232.829C241.575 236.367 242.011 239.999 242 243.643C242 252.067 240.573 258.232 237.718 262.138C234.864 266.043 229.949 267.997 222.972 268C219.058 268 215.895 267.377 213.485 266.131C211.054 264.864 209.008 262.972 207.556 260.651C206.434 258.941 205.561 256.602 204.937 253.634C204.29 250.406 203.976 247.12 204.001 243.828ZM216.818 243.859C216.818 249.781 217.341 253.819 218.385 255.974C219.429 258.129 220.946 259.212 222.937 259.222C223.568 259.229 224.195 259.111 224.781 258.874C225.366 258.637 225.899 258.287 226.348 257.843C227.312 256.924 228.021 255.472 228.475 253.487C228.929 251.502 229.156 248.412 229.156 244.218C229.156 238.055 228.632 233.911 227.586 231.787C226.539 229.663 224.969 228.602 222.875 228.604C220.74 228.604 219.193 229.687 218.234 231.852C217.275 234.018 216.803 238.02 216.818 243.859Z"
              fill="white"/>
        <path d="M269.736 258.36H246V247.803L269.736 220H281.094V248.402H287V258.36H281.094V267H269.736V258.36ZM269.736 248.402V233.859L257.195 248.402H269.736Z"
              fill="white"/>
    </g>
    <defs>
        <clipPath id="clip0_2362_54354">
            <rect width="453.241" height="320" fill="white" transform="translate(0.378906)"/>
        </clipPath>
    </defs>
</svg>
