<svg width="120" height="120" viewBox="0 0 120 120" fill="none" xmlns="http://www.w3.org/2000/svg">
    <path d="M114.402 77.7529C114.454 77.5526 114.504 77.3509 114.554 77.1489C114.505 77.3509 114.454 77.5519 114.402 77.7529Z"
          fill="#BFE5FE"/>
    <path d="M60.0006 7.71094C38.3947 7.71094 25.0865 19.8969 25.0499 19.9176C24.216 23.7665 22.7656 29.352 22.7656 33.4506C22.7656 64.4583 48.9144 89.589 79.922 89.589C93.1361 89.589 105.277 83.4363 114.868 75.7974C114.907 75.5581 116.145 70.6285 116.145 63.8554C116.145 32.8478 91.0083 7.71094 60.0006 7.71094Z"
          fill="black" fill-opacity="0.12"/>
    <path d="M79.9167 88.004C48.909 88.004 23.7722 62.8671 23.7722 31.8595C23.7722 27.7609 24.2155 23.7664 25.0492 19.9175C25.048 19.9184 25.0466 19.9196 25.0454 19.9205C12.1334 30.2072 3.85547 46.0634 3.85547 63.8553C3.85547 85.1639 15.7261 103.7 33.2153 113.211L91.3895 110.409C102.624 102.817 110.963 91.2632 114.404 77.7528C114.455 77.5518 114.506 77.3507 114.555 77.1488C114.578 77.0527 114.79 76.1531 114.867 75.7971C105.277 83.4365 93.1308 88.004 79.9167 88.004Z"
          fill="black" fill-opacity="0.08"/>
    <path d="M61.4219 44.9077V117.903C69.2686 117.708 76.7147 117.98 83.4432 114.883C86.2215 113.604 88.8775 112.105 91.3888 110.408L94.3007 44.9077H61.4219Z"
          fill="#D32F2F"/>
    <path d="M83.4428 114.883H72.5486C66.8776 114.883 62.2803 110.285 62.2803 104.614V44.9077H30.1797L33.2163 113.211C41.1769 117.541 50.3016 120 60.0007 120C68.3697 120 76.309 118.166 83.4428 114.883Z"
          fill="#C62828"/>
    <path d="M58.6012 21.501L33.1328 46.9694L20.583 34.4196C17.3994 31.236 17.3994 26.0556 20.583 22.8719L34.5037 8.95121C37.6874 5.76757 42.8678 5.76757 46.0515 8.95121L58.6012 21.501ZM33.1328 37.4974L49.1292 21.501L41.3153 13.6871C40.743 13.1148 39.8119 13.1148 39.2396 13.6871L25.3189 27.6078C24.7466 28.1801 24.7466 29.1112 25.3189 29.6835L33.1328 37.4974Z"
          fill="#C62828"/>
    <path d="M27.3789 34.7461L62.1186 0.00635895L73.2581 11.1458L38.5183 45.8855L27.3789 34.7461Z" fill="#D32F2F"/>
    <path d="M11.625 50.4951L28.8731 33.247L40.0125 44.3865L22.7644 61.6346L11.625 50.4951Z" fill="#C62828"/>
    <path d="M62.239 114.924C60.0811 114.924 58.332 113.175 58.332 111.017V63.0812C58.332 60.9234 60.0813 59.1743 62.239 59.1743C64.3968 59.1743 66.1459 60.9236 66.1459 63.0812V111.017C66.1459 113.175 64.3968 114.924 62.239 114.924Z"
          fill="white"/>
    <path d="M46.684 114.924C44.618 114.924 42.8924 113.304 42.7853 111.217L40.3294 63.2808C40.2191 61.1257 41.8765 59.2893 44.0313 59.179C46.1909 59.0695 48.0228 60.7263 48.1332 62.8809L50.5891 110.817C50.6994 112.972 49.042 114.808 46.8872 114.919C46.8191 114.922 46.7512 114.924 46.684 114.924Z"
          fill="white"/>
    <path d="M78.1722 114.924C78.1046 114.924 78.0372 114.923 77.9691 114.919C75.814 114.809 74.1568 112.972 74.2669 110.817L76.7228 62.8812C76.8332 60.7261 78.6679 59.0689 80.8246 59.179C82.9797 59.2894 84.6369 61.126 84.5268 63.2809L82.0709 111.217C81.9638 113.304 80.238 114.924 78.1722 114.924Z"
          fill="white"/>
    <path d="M74.2246 21.4172L70.2954 27.4846C69.7257 28.3641 68.7492 28.8953 67.7014 28.8953C65.1713 28.8953 63.7132 31.7697 65.2077 33.8111L68.215 37.9192C68.9265 38.891 70.1376 39.3611 71.3183 39.1235L78.3121 37.7159C79.0133 37.5747 79.7416 37.6811 80.373 38.0169L86.2784 41.1576C87.9391 42.0408 89.997 41.2482 90.6362 39.479L93.3593 31.9406C93.8945 30.4588 93.2295 28.8117 91.8155 28.1168L87.4357 25.965C86.6727 25.5902 86.0978 24.9177 85.8463 24.1056L84.7579 20.5911C84.2499 18.9508 82.502 18.0392 80.8662 18.5612L75.8788 20.1529C75.198 20.3704 74.6133 20.8172 74.2246 21.4172Z"
          fill="white"/>
</svg>
